<svg width="30" height="30" viewBox="0 0 30 30" fill="none" xmlns="http://www.w3.org/2000/svg">
<path d="M22.5 10C22.5 10.663 22.2366 11.2989 21.7678 11.7678C21.2989 12.2366 20.663 12.5 20 12.5C19.337 12.5 18.7011 12.2366 18.2322 11.7678C17.7634 11.2989 17.5 10.663 17.5 10C17.5 9.33696 17.7634 8.70107 18.2322 8.23223C18.7011 7.76339 19.337 7.5 20 7.5C20.663 7.5 21.2989 7.76339 21.7678 8.23223C22.2366 8.70107 22.5 9.33696 22.5 10Z" fill="#F9FFFF"/>
<path fill-rule="evenodd" clip-rule="evenodd" d="M14.9288 1.5625H15.0712C17.9575 1.5625 20.2188 1.5625 21.9837 1.8C23.7887 2.0425 25.2138 2.55 26.3325 3.6675C27.4513 4.78625 27.9575 6.21125 28.2 8.0175C28.4375 9.78125 28.4375 12.0425 28.4375 14.9287V15.0387C28.4375 17.425 28.4375 19.3775 28.3075 20.9675C28.1775 22.5675 27.9112 23.9012 27.3137 25.0112C27.0521 25.4996 26.725 25.94 26.3325 26.3325C25.2138 27.4512 23.7887 27.9575 21.9825 28.2C20.2188 28.4375 17.9575 28.4375 15.0712 28.4375H14.9288C12.0425 28.4375 9.78125 28.4375 8.01625 28.2C6.21125 27.9575 4.78625 27.45 3.6675 26.3325C2.67625 25.3412 2.16375 24.1075 1.8925 22.575C1.62375 21.0712 1.575 19.2 1.565 16.8775C1.56333 16.2858 1.5625 15.66 1.5625 15V14.9275C1.5625 12.0412 1.5625 9.78 1.8 8.015C2.0425 6.21 2.55 4.785 3.6675 3.66625C4.78625 2.5475 6.21125 2.04125 8.0175 1.79875C9.78125 1.56125 12.0425 1.56125 14.9288 1.56125M8.26625 3.65625C6.66875 3.87125 5.705 4.28125 4.99375 4.9925C4.28125 5.705 3.8725 6.6675 3.6575 8.26625C3.44 9.89125 3.4375 12.0262 3.4375 14.9987V16.0537L4.68875 14.9587C5.23759 14.4783 5.94853 14.2244 6.67754 14.2486C7.40656 14.2727 8.09914 14.5731 8.615 15.0887L13.9775 20.4512C14.3936 20.8673 14.9432 21.1232 15.5294 21.174C16.1157 21.2247 16.701 21.0671 17.1825 20.7287L17.555 20.4662C18.2496 19.9782 19.0893 19.7402 19.9367 19.7913C20.7841 19.8424 21.5891 20.1795 22.22 20.7475L25.7575 23.9312C26.115 23.1837 26.3262 22.2012 26.4387 20.815C26.5612 19.3087 26.5625 17.4312 26.5625 14.9987C26.5625 12.0262 26.56 9.89125 26.3425 8.26625C26.1275 6.6675 25.7175 5.70375 25.0062 4.99125C24.2937 4.28 23.3312 3.87125 21.7325 3.65625C20.1075 3.43875 17.9725 3.43625 15 3.43625C12.0275 3.43625 9.89125 3.43875 8.26625 3.65625Z" fill="#F9FFFF"/>
</svg>
