<svg width="28" height="28" viewBox="0 0 28 28" fill="none" xmlns="http://www.w3.org/2000/svg">
<path d="M2.33301 18.6667V21C5.55301 21 8.16634 23.6133 8.16634 26.8333H10.4997C10.4997 22.3183 6.84801 18.6667 2.33301 18.6667ZM2.33301 23.3333V26.8333H5.83301C5.83301 24.8967 4.26967 23.3333 2.33301 23.3333ZM2.33301 14V16.3333C5.11778 16.3333 7.7885 17.4396 9.75763 19.4087C11.7268 21.3778 12.833 24.0485 12.833 26.8333H15.1663C15.1663 19.74 9.42634 14 2.33301 14ZM5.83301 1.16666V12.0983C6.63801 12.285 7.41967 12.53 8.16634 12.845V5.83332H19.833V21H16.298C16.9047 22.4583 17.278 24.0217 17.4063 25.6667H22.1663V1.16666H5.83301Z" fill="#08BFC1"/>
</svg>
