<svg width="35" height="35" viewBox="0 0 35 35" fill="none" xmlns="http://www.w3.org/2000/svg">
<g clip-path="url(#clip0_392_781)">
<path d="M14.5003 24.7917C14.9135 24.7917 15.2601 24.6517 15.5401 24.3717C15.8201 24.0917 15.9596 23.7456 15.9587 23.3334V17.5C15.9587 17.0868 15.8187 16.7407 15.5387 16.4617C15.2587 16.1827 14.9125 16.0427 14.5003 16.0417C14.0881 16.0407 13.742 16.1807 13.462 16.4617C13.182 16.7427 13.042 17.0888 13.042 17.5V23.3334C13.042 23.7465 13.182 24.0931 13.462 24.3731C13.742 24.6531 14.0881 24.7927 14.5003 24.7917ZM14.5003 13.125C14.9135 13.125 15.2601 12.985 15.5401 12.705C15.8201 12.425 15.9596 12.0789 15.9587 11.6667C15.9577 11.2545 15.8177 10.9084 15.5387 10.6284C15.2596 10.3484 14.9135 10.2084 14.5003 10.2084C14.0871 10.2084 13.741 10.3484 13.462 10.6284C13.183 10.9084 13.043 11.2545 13.042 11.6667C13.041 12.0789 13.181 12.4255 13.462 12.7065C13.743 12.9875 14.0891 13.127 14.5003 13.125ZM14.5003 32.0834C12.483 32.0834 10.5871 31.7003 8.81283 30.9342C7.03852 30.1681 5.49512 29.1293 4.18262 27.8177C2.87012 26.5062 1.8313 24.9628 1.06616 23.1875C0.301022 21.4122 -0.0820337 19.5164 -0.083006 17.5C-0.0839782 15.4836 0.299078 13.5878 1.06616 11.8125C1.83324 10.0372 2.87206 8.49384 4.18262 7.18231C5.49317 5.87078 7.03658 4.83196 8.81283 4.06585C10.5891 3.29974 12.4849 2.91669 14.5003 2.91669C16.5157 2.91669 18.4116 3.29974 20.1878 4.06585C21.9641 4.83196 23.5075 5.87078 24.818 7.18231C26.1286 8.49384 27.1679 10.0372 27.936 11.8125C28.704 13.5878 29.0866 15.4836 29.0837 17.5C29.0807 19.5164 28.6977 21.4122 27.9345 23.1875C27.1713 24.9628 26.1325 26.5062 24.818 27.8177C23.5036 29.1293 21.9602 30.1686 20.1878 30.9356C18.4155 31.7027 16.5196 32.0853 14.5003 32.0834Z" fill="white"/>
</g>
<defs>
<clipPath id="clip0_392_781">
<rect width="35" height="35" fill="white"/>
</clipPath>
</defs>
</svg>
