<svg width="22" height="22" viewBox="0 0 22 22" fill="none" xmlns="http://www.w3.org/2000/svg">
<path d="M20.75 7.41703V4.08297C20.75 3.19901 20.3988 2.35126 19.7738 1.72621C19.1487 1.10115 18.301 0.75 17.417 0.75H14.083M14.083 20.75H17.417C18.301 20.75 19.1487 20.3988 19.7738 19.7738C20.3988 19.1487 20.75 18.301 20.75 17.417V14.083M0.75 14.083V17.417C0.75 18.301 1.10115 19.1487 1.72621 19.7738C2.35126 20.3988 3.19901 20.75 4.08297 20.75H7.41703M7.41703 0.75H4.08297C3.19901 0.75 2.35126 1.10115 1.72621 1.72621C1.10115 2.35126 0.75 3.19901 0.75 4.08297V7.41703M7.97486 4.08297H5.05595C4.7979 4.08297 4.55042 4.18548 4.36795 4.36795C4.18548 4.55042 4.08297 4.7979 4.08297 5.05595V7.97486C4.08297 8.23291 4.18548 8.48039 4.36795 8.66286C4.55042 8.84533 4.7979 8.94784 5.05595 8.94784H7.97486C8.23291 8.94784 8.48039 8.84533 8.66286 8.66286C8.84533 8.48039 8.94784 8.23291 8.94784 7.97486V5.05595C8.94784 4.7979 8.84533 4.55042 8.66286 4.36795C8.48039 4.18548 8.23291 4.08297 7.97486 4.08297ZM7.97486 12.5316H5.05595C4.7979 12.5316 4.55042 12.6341 4.36795 12.8166C4.18548 12.9991 4.08297 13.2465 4.08297 13.5046V16.4235C4.08297 16.6816 4.18548 16.929 4.36795 17.1115C4.55042 17.294 4.7979 17.3965 5.05595 17.3965H7.97486C8.23291 17.3965 8.48039 17.294 8.66286 17.1115C8.84533 16.929 8.94784 16.6816 8.94784 16.4235V13.5046C8.94784 13.2465 8.84533 12.9991 8.66286 12.8166C8.48039 12.6341 8.23291 12.5316 7.97486 12.5316ZM16.4441 4.08297H13.5251C13.2671 4.08297 13.0196 4.18548 12.8371 4.36795C12.6547 4.55042 12.5522 4.7979 12.5522 5.05595V7.97486C12.5522 8.23291 12.6547 8.48039 12.8371 8.66286C13.0196 8.84533 13.2671 8.94784 13.5251 8.94784H16.4441C16.7021 8.94784 16.9496 8.84533 17.132 8.66286C17.3145 8.48039 17.417 8.23291 17.417 7.97486V5.05595C17.417 4.7979 17.3145 4.55042 17.132 4.36795C16.9496 4.18548 16.7021 4.08297 16.4441 4.08297ZM16.4441 12.5522H13.5251C13.2671 12.5522 13.0196 12.6547 12.8371 12.8371C12.6547 13.0196 12.5522 13.2671 12.5522 13.5251V16.4441C12.5522 16.7021 12.6547 16.9496 12.8371 17.132C13.0196 17.3145 13.2671 17.417 13.5251 17.417H16.4441C16.7021 17.417 16.9496 17.3145 17.132 17.132C17.3145 16.9496 17.417 16.7021 17.417 16.4441V13.5251C17.417 13.2671 17.3145 13.0196 17.132 12.8371C16.9496 12.6547 16.7021 12.5522 16.4441 12.5522Z" stroke="#08BFC1" stroke-width="1.5" stroke-linecap="round" stroke-linejoin="round"/>
</svg>
