<svg width="24" height="24" viewBox="0 0 24 24" fill="none" xmlns="http://www.w3.org/2000/svg">
<path d="M13.5247 16H17.9097L15.9167 11.046L13.5247 16ZM18.7147 18H12.5587L10.9007 21.435C10.7853 21.674 10.5798 21.8573 10.3292 21.9447C10.0787 22.0321 9.80365 22.0164 9.56469 21.901C9.32573 21.7856 9.14239 21.5801 9.055 21.3295C8.96761 21.079 8.98332 20.804 9.09869 20.565L14.1157 10.177C14.2843 9.82813 14.5505 9.53574 14.8822 9.33536C15.2138 9.13498 15.5965 9.03524 15.9837 9.04827C16.371 9.0613 16.7461 9.18653 17.0635 9.40874C17.3809 9.63096 17.6269 9.94059 17.7717 10.3L21.9277 20.627C22.0266 20.8731 22.0237 21.1485 21.9196 21.3924C21.8156 21.6364 21.6188 21.8291 21.3727 21.928C21.1266 22.0269 20.8512 22.024 20.6072 21.9199C20.3633 21.8159 20.1706 21.6191 20.0717 21.373L18.7147 18ZM2.99969 2H10.9997C11.2649 2 11.5193 2.10536 11.7068 2.29289C11.8943 2.48043 11.9997 2.73478 11.9997 3C11.9997 3.26522 11.8943 3.51957 11.7068 3.70711C11.5193 3.89464 11.2649 4 10.9997 4H2.99969C2.73448 4 2.48012 3.89464 2.29259 3.70711C2.10505 3.51957 1.99969 3.26522 1.99969 3C1.99969 2.73478 2.10505 2.48043 2.29259 2.29289C2.48012 2.10536 2.73448 2 2.99969 2ZM2.99969 7C2.73448 7 2.48012 6.89464 2.29259 6.70711C2.10505 6.51957 1.99969 6.26522 1.99969 6C1.99969 5.73478 2.10505 5.48043 2.29259 5.29289C2.48012 5.10536 2.73448 5 2.99969 5H10.0027C10.3529 5.00011 10.697 5.0922 11.0005 5.26704C11.3039 5.44188 11.5562 5.69335 11.7319 5.99629C11.9077 6.29922 12.0009 6.64301 12.002 6.99324C12.0032 7.34348 11.9124 7.68788 11.7387 7.992C10.7937 9.646 9.74569 10.836 8.57369 11.546C7.10169 12.439 5.25369 12.918 3.03669 12.999C2.90351 13.0073 2.77003 12.9888 2.64409 12.9447C2.51816 12.9006 2.40232 12.8318 2.30341 12.7422C2.2045 12.6526 2.12451 12.5442 2.06816 12.4232C2.01181 12.3023 1.98023 12.1713 1.97529 12.0379C1.97036 11.9046 1.99215 11.7716 2.0394 11.6468C2.08665 11.522 2.1584 11.408 2.25041 11.3113C2.34243 11.2147 2.45285 11.1375 2.57518 11.0842C2.69751 11.0309 2.82927 11.0026 2.96269 11.001C4.86069 10.931 6.38169 10.537 7.53669 9.836C8.38369 9.323 9.21269 8.382 10.0027 7H2.99969Z" fill="#08BFC1"/>
</svg>
