<svg width="20" height="24" viewBox="0 0 20 24" fill="none" xmlns="http://www.w3.org/2000/svg">
<path d="M4.17188 4.125C4.17188 3.642 4.53937 3.25 4.99219 3.25H10.5V7.875C10.5 8.43859 10.7099 8.97909 11.0835 9.3776C11.4571 9.77612 11.9638 10 12.4922 10H16.8281V19.875C16.8281 20.1071 16.7417 20.3296 16.5879 20.4937C16.434 20.6578 16.2254 20.75 16.0078 20.75H4.99219C4.77463 20.75 4.56598 20.6578 4.41214 20.4937C4.2583 20.3296 4.17188 20.1071 4.17188 19.875V4.125ZM16.3509 8.75H12.4922C12.2746 8.75 12.066 8.65781 11.9121 8.49372C11.7583 8.32962 11.6719 8.10706 11.6719 7.875V3.759L16.3509 8.75ZM4.99219 2C4.46383 2 3.95711 2.22388 3.5835 2.6224C3.20989 3.02091 3 3.56141 3 4.125V19.875C3 20.4386 3.20989 20.9791 3.5835 21.3776C3.95711 21.7761 4.46383 22 4.99219 22H16.0078C16.5362 22 17.0429 21.7761 17.4165 21.3776C17.7901 20.9791 18 20.4386 18 19.875V9.6215C18 9.34237 17.9485 9.06596 17.8484 8.80807C17.7482 8.55018 17.6015 8.31586 17.4164 8.1185L12.2639 2.6225C12.0789 2.42511 11.8592 2.26854 11.6174 2.16173C11.3757 2.05492 11.1165 1.99996 10.8548 2H4.99219Z" fill="#08BFC1"/>
</svg>
