<svg width="24" height="24" viewBox="0 0 24 24" fill="none" xmlns="http://www.w3.org/2000/svg">
<path d="M12 21.25C14.0094 21.2496 15.964 20.5948 17.5682 19.3848C19.1725 18.1748 20.339 16.4753 20.8915 14.5434C21.444 12.6115 21.3524 10.5521 20.6305 8.6769C19.9086 6.80167 18.5958 5.21249 16.8904 4.14971C15.1851 3.08694 13.1801 2.60837 11.1786 2.78638C9.17712 2.96439 7.28803 3.7893 5.79703 5.13636C4.30603 6.48341 3.29422 8.27934 2.91462 10.2525C2.53501 12.2258 2.80827 14.2689 3.69305 16.073C3.80105 16.293 3.83705 16.541 3.78205 16.779L2.96605 20.315C2.94304 20.4142 2.94568 20.5177 2.97372 20.6156C3.00175 20.7136 3.05425 20.8027 3.12628 20.8748C3.19831 20.9468 3.28749 20.9993 3.38543 21.0273C3.48336 21.0554 3.58681 21.058 3.68605 21.035L7.22105 20.218C7.45972 20.1657 7.70912 20.1975 7.92705 20.308C9.19444 20.9304 10.5881 21.2527 12 21.25Z" stroke="#08BFC1" stroke-width="1.5" stroke-linecap="round" stroke-linejoin="round"/>
<path d="M9.30078 9.70898C9.30074 9.28073 9.4026 8.85862 9.59795 8.47752C9.7933 8.09643 10.0765 7.76728 10.4242 7.51729C10.772 7.2673 11.1742 7.10364 11.5976 7.03983C12.0211 6.97602 12.4537 7.0139 12.8596 7.15033C13.2655 7.28675 13.6332 7.51782 13.9322 7.82443C14.2311 8.13104 14.4529 8.50439 14.579 8.91364C14.7052 9.32289 14.7321 9.75628 14.6577 10.178C14.5832 10.5997 14.4095 10.9977 14.1508 11.339C14.0502 11.4506 13.9433 11.5564 13.8308 11.656C13.7388 11.734 13.6938 11.766 13.6038 11.827L12.6248 12.502C12.3827 12.6685 12.1849 12.8915 12.0483 13.1516C11.9117 13.4117 11.8405 13.7012 11.8408 13.995" stroke="#08BFC1" stroke-width="1.5" stroke-linecap="round" stroke-linejoin="round"/>
<path d="M11.8281 17.74C12.3804 17.74 12.8281 17.2923 12.8281 16.74C12.8281 16.1877 12.3804 15.74 11.8281 15.74C11.2758 15.74 10.8281 16.1877 10.8281 16.74C10.8281 17.2923 11.2758 17.74 11.8281 17.74Z" fill="#08BFC1"/>
</svg>
