<svg width="20" height="20" viewBox="0 0 20 20" fill="none" xmlns="http://www.w3.org/2000/svg">
<path d="M14.667 14H16.667V12M14.667 5.99999H16.667V7.99999M5.33366 5.99999H3.33366V7.99999M3.33366 12V14H5.33366M10.0003 12.6667C9.29308 12.6667 8.6148 12.3857 8.11471 11.8856C7.61461 11.3855 7.33366 10.7072 7.33366 9.99999C7.33366 9.29275 7.61461 8.61447 8.11471 8.11438C8.6148 7.61428 9.29308 7.33333 10.0003 7.33333C10.7076 7.33333 11.3858 7.61428 11.8859 8.11438C12.386 8.61447 12.667 9.29275 12.667 9.99999C12.667 10.7072 12.386 11.3855 11.8859 11.8856C11.3858 12.3857 10.7076 12.6667 10.0003 12.6667ZM2.00033 3.33333H18.0003C18.3539 3.33333 18.6931 3.4738 18.9431 3.72385C19.1932 3.9739 19.3337 4.31304 19.3337 4.66666V15.3333C19.3337 15.6869 19.1932 16.0261 18.9431 16.2761C18.6931 16.5262 18.3539 16.6667 18.0003 16.6667H2.00033C1.6467 16.6667 1.30757 16.5262 1.05752 16.2761C0.807468 16.0261 0.666992 15.6869 0.666992 15.3333V4.66666C0.666992 4.31304 0.807468 3.9739 1.05752 3.72385C1.30757 3.4738 1.6467 3.33333 2.00033 3.33333Z" stroke="#08BFC1"/>
</svg>
