<svg width="24" height="24" viewBox="0 0 24 24" fill="none" xmlns="http://www.w3.org/2000/svg">
<path d="M15.8703 14.853C15.8695 15.0148 15.805 15.1698 15.6907 15.2844C15.5764 15.3989 15.4216 15.4638 15.2598 15.465H8.73931C8.57699 15.465 8.42133 15.4005 8.30656 15.2858C8.19178 15.171 8.12731 15.0153 8.12731 14.853C8.12731 14.6907 8.19178 14.535 8.30656 14.4203C8.42133 14.3055 8.57699 14.241 8.73931 14.241H15.2598C15.4219 14.2418 15.5771 14.3065 15.6917 14.4211C15.8063 14.5357 15.871 14.6909 15.8718 14.853M15.2613 10.9815H8.73931C8.58243 10.9893 8.43455 11.0571 8.32627 11.1708C8.21798 11.2846 8.15759 11.4357 8.15759 11.5928C8.15759 11.7498 8.21798 11.9009 8.32627 12.0147C8.43455 12.1284 8.58243 12.1962 8.73931 12.204H15.2598C15.4167 12.1962 15.5646 12.1284 15.6728 12.0147C15.7811 11.9009 15.8415 11.7498 15.8415 11.5928C15.8415 11.4357 15.7811 11.2846 15.6728 11.1708C15.5646 11.0571 15.4182 10.9893 15.2613 10.9815ZM20.7618 4.257V21.3735C20.762 21.5608 20.7253 21.7462 20.6538 21.9193C20.5822 22.0923 20.4773 22.2496 20.345 22.3821C20.2126 22.5146 20.0555 22.6197 19.8825 22.6914C19.7095 22.7631 19.5241 22.8 19.3368 22.8H4.66231C4.28437 22.8 3.92192 22.6499 3.65468 22.3826C3.38744 22.1154 3.23731 21.7529 3.23731 21.375V4.2555C3.23711 4.06824 3.27382 3.88278 3.34535 3.70972C3.41687 3.53666 3.5218 3.37939 3.65415 3.24691C3.78649 3.11442 3.94365 3.00932 4.11663 2.93762C4.28962 2.86591 4.47505 2.829 4.66231 2.829H8.44981C8.88888 2.31745 9.43335 1.90686 10.0459 1.62537C10.6585 1.34387 11.3247 1.19814 11.9988 1.19814C12.673 1.19814 13.3391 1.34387 13.9517 1.62537C14.5643 1.90686 15.1087 2.31745 15.5478 2.829H19.3338C19.5211 2.8288 19.7065 2.86552 19.8796 2.93704C20.0527 3.00857 20.2099 3.1135 20.3424 3.24584C20.4749 3.37819 20.58 3.53534 20.6517 3.70833C20.7234 3.88132 20.7603 4.06674 20.7603 4.254M8.53531 5.8845V6.087H15.4623V5.8845C15.4719 5.4235 15.3894 4.96523 15.2196 4.53653C15.0498 4.10783 14.7962 3.71733 14.4735 3.38791C14.1509 3.05849 13.7658 2.79678 13.3407 2.61811C12.9156 2.43944 12.4592 2.34741 11.9981 2.34741C11.537 2.34741 11.0805 2.43944 10.6554 2.61811C10.2303 2.79678 9.84521 3.05849 9.52257 3.38791C9.19994 3.71733 8.9463 4.10783 8.77651 4.53653C8.60673 4.96523 8.52571 5.4235 8.53531 5.8845ZM19.5363 4.254C19.5363 4.22721 19.531 4.20069 19.5208 4.17593C19.5105 4.15118 19.4955 4.1287 19.4766 4.10975C19.4576 4.09081 19.4351 4.07578 19.4104 4.06553C19.3856 4.05528 19.3591 4.05 19.3323 4.05H16.3098C16.5573 4.629 16.6848 5.253 16.6848 5.8845V6.699C16.684 6.86107 16.6193 7.01628 16.5047 7.13088C16.3901 7.24548 16.2349 7.31021 16.0728 7.311H7.92481C7.76274 7.31021 7.60753 7.24548 7.49293 7.13088C7.37833 7.01628 7.31359 6.86107 7.31281 6.699V5.8845C7.31281 5.2545 7.44031 4.629 7.68781 4.05H4.66231C4.63552 4.05 4.60899 4.05528 4.58424 4.06553C4.55949 4.07578 4.537 4.09081 4.51806 4.10975C4.49911 4.1287 4.48409 4.15118 4.47383 4.17593C4.46358 4.20069 4.45831 4.22721 4.45831 4.254V21.3705C4.45831 21.4246 4.4798 21.4765 4.51806 21.5148C4.55631 21.553 4.6082 21.5745 4.66231 21.5745H19.3338C19.3879 21.5745 19.4398 21.553 19.4781 21.5148C19.5163 21.4765 19.5378 21.4246 19.5378 21.3705L19.5363 4.254Z" fill="#08BFC1"/>
</svg>
