<svg width="24" height="24" viewBox="0 0 24 24" fill="none" xmlns="http://www.w3.org/2000/svg">
<path d="M12.8656 3L22.3916 19.5C22.4794 19.652 22.5256 19.8245 22.5256 20C22.5256 20.1755 22.4794 20.348 22.3916 20.5C22.3038 20.652 22.1776 20.7782 22.0256 20.866C21.8736 20.9538 21.7011 21 21.5256 21H2.47361C2.29807 21 2.12563 20.9538 1.97362 20.866C1.8216 20.7782 1.69537 20.652 1.6076 20.5C1.51984 20.348 1.47363 20.1755 1.47363 20C1.47363 19.8245 1.51984 19.652 1.60761 19.5L11.1336 3C11.2214 2.84799 11.3476 2.72177 11.4996 2.63401C11.6516 2.54625 11.8241 2.50005 11.9996 2.50005C12.1751 2.50005 12.3476 2.54625 12.4996 2.63401C12.6516 2.72177 12.7778 2.84799 12.8656 3ZM4.20561 19H19.7936L11.9996 5.5L4.20561 19ZM10.9996 16H12.9996V18H10.9996V16ZM10.9996 9H12.9996V14H10.9996V9Z" fill="#08BFC1"/>
</svg>
