<svg width="24" height="24" viewBox="0 0 24 24" fill="none" xmlns="http://www.w3.org/2000/svg">
<path d="M17.0049 16.003H19.0049V4.003H9.00488V6.003H17.0049V16.003ZM17.0049 18.003V21.002C17.0049 21.555 16.5549 22.002 15.9979 22.002H4.01188C3.87997 22.0029 3.74918 21.9777 3.62705 21.9279C3.50491 21.8781 3.39385 21.8045 3.30025 21.7116C3.20665 21.6186 3.13236 21.5081 3.08167 21.3863C3.03098 21.2645 3.00488 21.1339 3.00488 21.002L3.00688 7.004C3.00688 6.451 3.45688 6.003 4.01388 6.003H7.00388V3.003C7.00388 2.73778 7.10924 2.48343 7.29678 2.29589C7.48431 2.10836 7.73867 2.003 8.00388 2.003H20.0039C20.2691 2.003 20.5235 2.10836 20.711 2.29589C20.8985 2.48343 21.0039 2.73778 21.0039 3.003V17.003C21.0039 17.2682 20.8985 17.5226 20.711 17.7101C20.5235 17.8976 20.2691 18.003 20.0039 18.003H17.0049ZM7.00488 16.003V18.003H9.00488V19.003H11.0049V18.003H11.5049C12.1679 18.003 12.8038 17.7396 13.2726 17.2708C13.7415 16.8019 14.0049 16.166 14.0049 15.503C14.0049 14.84 13.7415 14.2041 13.2726 13.7352C12.8038 13.2664 12.1679 13.003 11.5049 13.003H8.50488C8.37227 13.003 8.2451 12.9503 8.15133 12.8566C8.05756 12.7628 8.00488 12.6356 8.00488 12.503C8.00488 12.3704 8.05756 12.2432 8.15133 12.1494C8.2451 12.0557 8.37227 12.003 8.50488 12.003H13.0049V10.003H11.0049V9.003H9.00488V10.003H8.50488C7.84184 10.003 7.20596 10.2664 6.73712 10.7352C6.26827 11.2041 6.00488 11.84 6.00488 12.503C6.00488 13.166 6.26827 13.8019 6.73712 14.2708C7.20596 14.7396 7.84184 15.003 8.50488 15.003H11.5049C11.6375 15.003 11.7647 15.0557 11.8584 15.1494C11.9522 15.2432 12.0049 15.3704 12.0049 15.503C12.0049 15.6356 11.9522 15.7628 11.8584 15.8566C11.7647 15.9503 11.6375 16.003 11.5049 16.003H7.00488Z" fill="#08BFC1"/>
</svg>
