<svg width="20" height="23" viewBox="0 0 20 23" fill="none" xmlns="http://www.w3.org/2000/svg">
<path d="M5.55556 8.99187V16.8743H14.4444V8.99187C14.4444 7.79727 13.9762 6.6516 13.1427 5.80689C12.3092 4.96218 11.1787 4.48763 10 4.48763C8.82126 4.48763 7.6908 4.96218 6.8573 5.80689C6.02381 6.6516 5.55556 7.79727 5.55556 8.99187ZM7.81111 2.6071C7.76044 2.2854 7.77925 1.95638 7.86622 1.64276C7.9532 1.32913 8.10628 1.03836 8.3149 0.790514C8.52352 0.542664 8.78271 0.343634 9.0746 0.207156C9.36648 0.0706774 9.6841 0 10.0056 0C10.327 0 10.6446 0.0706774 10.9365 0.207156C11.2284 0.343634 11.4876 0.542664 11.6962 0.790514C11.9048 1.03836 12.0579 1.32913 12.1449 1.64276C12.2319 1.95638 12.2507 2.2854 12.2 2.6071C13.5063 3.0699 14.6381 3.9332 15.4385 5.07726C16.2388 6.22132 16.6681 7.58944 16.6667 8.99187V15.7482L20 18.0004V19.1264H0V18.0004L3.33333 15.7482V8.99187C3.33273 7.58808 3.76359 6.21895 4.56606 5.07473C5.36853 3.9305 6.50274 3.06801 7.81111 2.6071ZM12.2222 20.2525C12.2222 20.8498 11.9881 21.4226 11.5713 21.845C11.1546 22.2673 10.5894 22.5046 10 22.5046C9.41063 22.5046 8.8454 22.2673 8.42865 21.845C8.0119 21.4226 7.77778 20.8498 7.77778 20.2525H12.2222Z" fill="#08BFC1"/>
</svg>
