<svg width="40" height="40" viewBox="0 0 40 40" fill="none" xmlns="http://www.w3.org/2000/svg">
<path d="M31.6667 33.3333H8.33333C7.44928 33.3333 6.60143 32.9821 5.97631 32.357C5.35119 31.7319 5 30.8841 5 30V15C5 14.1159 5.35119 13.2681 5.97631 12.643C6.60143 12.0179 7.44928 11.6667 8.33333 11.6667H31.6667C32.5507 11.6667 33.3986 12.0179 34.0237 12.643C34.6488 13.2681 35 14.1159 35 15V30C35 30.8841 34.6488 31.7319 34.0237 32.357C33.3986 32.9821 32.5507 33.3333 31.6667 33.3333Z" stroke="#08BFC1" stroke-width="1.5"/>
<path d="M27.5003 23.3333C27.2793 23.3333 27.0673 23.2455 26.9111 23.0893C26.7548 22.933 26.667 22.721 26.667 22.5C26.667 22.279 26.7548 22.067 26.9111 21.9107C27.0673 21.7545 27.2793 21.6667 27.5003 21.6667C27.7213 21.6667 27.9333 21.7545 28.0896 21.9107C28.2459 22.067 28.3337 22.279 28.3337 22.5C28.3337 22.721 28.2459 22.933 28.0896 23.0893C27.9333 23.2455 27.7213 23.3333 27.5003 23.3333Z" fill="#08BFC1" stroke="#08BFC1" stroke-width="1.5" stroke-linecap="round" stroke-linejoin="round"/>
<path d="M30 11.6667V9.33833C29.9999 8.8275 29.8823 8.32354 29.6564 7.86536C29.4306 7.40718 29.1024 7.00705 28.6973 6.69585C28.2922 6.38466 27.821 6.17074 27.3201 6.0706C26.8192 5.97046 26.3019 5.9868 25.8083 6.11833L7.475 11.0067C6.76509 11.1958 6.13757 11.6143 5.68998 12.1969C5.2424 12.7795 4.99984 13.4936 5 14.2283V15" stroke="#08BFC1" stroke-width="1.5"/>
</svg>
