<svg width="40" height="40" viewBox="0 0 40 40" fill="none" xmlns="http://www.w3.org/2000/svg">
<path d="M33.7497 30.6267H6.24967C5.3292 30.6267 4.58301 31.3729 4.58301 32.2933V33.96C4.58301 34.8805 5.3292 35.6267 6.24967 35.6267H33.7497C34.6702 35.6267 35.4163 34.8805 35.4163 33.96V32.2933C35.4163 31.3729 34.6702 30.6267 33.7497 30.6267Z" stroke="#08BFC1" stroke-width="1.5" stroke-linecap="round" stroke-linejoin="round"/>
<path d="M8.74967 16.4567V30.64M31.2497 16.4567V30.64M24.1663 16.4567V30.64M15.833 16.4567V30.64M18.3997 5.25L5.44967 12.3333C5.1874 12.4768 4.96855 12.6883 4.81607 12.9454C4.66359 13.2026 4.58309 13.496 4.58301 13.795V15.4567C4.58301 15.7219 4.68836 15.9762 4.8759 16.1638C5.06344 16.3513 5.31779 16.4567 5.58301 16.4567H34.4163C34.6816 16.4567 34.9359 16.3513 35.1235 16.1638C35.311 15.9762 35.4163 15.7219 35.4163 15.4567V13.795C35.4163 13.496 35.3358 13.2026 35.1833 12.9454C35.0308 12.6883 34.812 12.4768 34.5497 12.3333L21.5997 5.25C21.1091 4.98158 20.5589 4.8409 19.9997 4.8409C19.4405 4.8409 18.8902 4.98158 18.3997 5.25Z" stroke="#08BFC1" stroke-width="1.5" stroke-linecap="round" stroke-linejoin="round"/>
</svg>
