<svg width="40" height="40" viewBox="0 0 40 40" fill="none" xmlns="http://www.w3.org/2000/svg">
<path d="M32.1547 10.5344C29.0469 8.98125 24.7297 8.125 20 8.125C15.2703 8.125 10.9531 8.98125 7.84531 10.5344C4.84375 12.0312 3.125 14.1172 3.125 16.25V23.75C3.125 25.8828 4.84375 27.9688 7.84531 29.4656C10.9531 31.0188 15.2703 31.875 20 31.875C24.7297 31.875 29.0469 31.0188 32.1547 29.4656C35.1562 27.9688 36.875 25.8828 36.875 23.75V16.25C36.875 14.1172 35.1562 12.0312 32.1547 10.5344ZM20 9.375C29.6516 9.375 35.625 12.9437 35.625 16.25C35.625 19.5562 29.6516 23.125 20 23.125C10.3484 23.125 4.375 19.5562 4.375 16.25C4.375 12.9437 10.3484 9.375 20 9.375ZM19.375 24.375V30.625C15.9375 30.5703 12.9781 30.0547 10.625 29.2641V23.0703C13.1609 23.8672 16.1625 24.3156 19.375 24.375ZM20.625 24.375C23.8375 24.3234 26.8391 23.875 29.375 23.0781V29.2641C27.0219 30.0547 24.0703 30.5703 20.625 30.625V24.375ZM4.375 23.75V19.3625C5.17969 20.3297 6.35469 21.2203 7.84531 21.9656C8.32656 22.2063 8.83906 22.4266 9.375 22.6344V28.7875C6.17031 27.4484 4.375 25.5609 4.375 23.75ZM35.625 23.75C35.625 25.5609 33.8297 27.4484 30.625 28.7875V22.6344C31.1609 22.4266 31.6734 22.2063 32.1547 21.9656C33.6453 21.2203 34.8203 20.3297 35.625 19.3625V23.75Z" fill="#08BFC1"/>
</svg>
